<svg width="26" height="25" viewBox="0 0 26 25" fill="none" xmlns="http://www.w3.org/2000/svg">
<path fill-rule="evenodd" clip-rule="evenodd" d="M13 2C6.88433 2 2 6.74069 2 12.5C2 18.2593 6.88433 23 13 23C19.1157 23 24 18.2593 24 12.5C24 6.74069 19.1157 2 13 2ZM0 12.5C0 5.55676 5.86084 0 13 0C20.1392 0 26 5.55676 26 12.5C26 19.4432 20.1392 25 13 25C5.86084 25 0 19.4432 0 12.5Z" fill="#2C3447"/>
<path fill-rule="evenodd" clip-rule="evenodd" d="M13 1C13.5523 1 14 1.44772 14 2V13C14 13.5523 13.5523 14 13 14C12.4477 14 12 13.5523 12 13V2C12 1.44772 12.4477 1 13 1Z" fill="url(#paint0_linear_32_1002)" fill-opacity="0.88"/>
<path fill-rule="evenodd" clip-rule="evenodd" d="M20.6098 17.7821C20.316 18.2497 19.6987 18.3906 19.2311 18.0967L12.4679 13.8467C12.0003 13.5528 11.8594 12.9355 12.1533 12.4679C12.4472 12.0003 13.0645 11.8594 13.5321 12.1533L20.2952 16.4033C20.7628 16.6972 20.9037 17.3145 20.6098 17.7821Z" fill="#2C3447"/>
<path d="M14 13C14 13.5523 13 14 13 14C13 14 12 13.5523 12 13C12 12.4477 12.4477 12 13 12C13.5523 12 14 12.4477 14 13Z" fill="#2C3447"/>
<defs>
<linearGradient id="paint0_linear_32_1002" x1="19.5" y1="1.92308" x2="19.5" y2="23.0769" gradientUnits="userSpaceOnUse">
<stop stop-color="#2D3548"/>
<stop offset="1" stop-color="#2D3548"/>
</linearGradient>
</defs>
</svg>
