<svg width="34" height="38" viewBox="0 0 34 38" fill="none" xmlns="http://www.w3.org/2000/svg">
<g filter="url(#filter0_bd_119_809)">
<path d="M29 17.5C29 23.8513 23.6274 29 17 29C10.3726 29 5 23.8513 5 17.5C5 11.1487 10.3726 6 17 6C23.6274 6 29 11.1487 29 17.5Z" stroke="#2C3447" stroke-width="2" shape-rendering="crispEdges"/>
</g>
<path d="M17 18V7" stroke="url(#paint0_linear_119_809)" stroke-opacity="0.88" stroke-width="2" stroke-linecap="round"/>
<path d="M17.0001 18L23.7632 22.25" stroke="#2C3447" stroke-width="2" stroke-linecap="round"/>
<path d="M18 18C18 18.5523 17 19 17 19C17 19 16 18.5523 16 18C16 17.4477 16.4477 17 17 17C17.5523 17 18 17.4477 18 18Z" fill="#2C3447"/>
<defs>
<filter id="filter0_bd_119_809" x="0" y="1" width="34" height="37" filterUnits="userSpaceOnUse" color-interpolation-filters="sRGB">
<feFlood flood-opacity="0" result="BackgroundImageFix"/>
<feGaussianBlur in="BackgroundImageFix" stdDeviation="2"/>
<feComposite in2="SourceAlpha" operator="in" result="effect1_backgroundBlur_119_809"/>
<feColorMatrix in="SourceAlpha" type="matrix" values="0 0 0 0 0 0 0 0 0 0 0 0 0 0 0 0 0 0 127 0" result="hardAlpha"/>
<feOffset dy="4"/>
<feGaussianBlur stdDeviation="2"/>
<feComposite in2="hardAlpha" operator="out"/>
<feColorMatrix type="matrix" values="0 0 0 0 0.176471 0 0 0 0 0.207843 0 0 0 0 0.282353 0 0 0 0.24 0"/>
<feBlend mode="normal" in2="effect1_backgroundBlur_119_809" result="effect2_dropShadow_119_809"/>
<feBlend mode="normal" in="SourceGraphic" in2="effect2_dropShadow_119_809" result="shape"/>
</filter>
<linearGradient id="paint0_linear_119_809" x1="17.5" y1="7" x2="17.5" y2="18" gradientUnits="userSpaceOnUse">
<stop stop-color="#2D3548"/>
<stop offset="1" stop-color="#2D3548"/>
</linearGradient>
</defs>
</svg>
