<svg width="49" height="53" viewBox="0 0 49 53" fill="none" xmlns="http://www.w3.org/2000/svg">
<path fill-rule="evenodd" clip-rule="evenodd" d="M20.0919 4.01385C19.1017 7.89705 14.5497 9.61053 11.2447 7.34411C9.75338 6.32141 7.87154 7.9359 8.65561 9.5654C10.3932 13.1766 8.00754 17.4151 4.01894 17.8034C2.21913 17.9785 1.81533 20.4249 3.46338 21.1692C7.11565 22.8186 8.01264 27.599 5.20675 30.4603C3.94062 31.7514 5.20381 33.885 6.9447 33.3958C10.8027 32.3117 14.5626 35.3971 14.2524 39.3925C14.1123 41.1954 16.4515 42.0179 17.4706 40.5241C19.7292 37.2137 24.5927 37.1605 26.9232 40.4206C27.9748 41.8917 30.2954 41.0182 30.1159 39.2188C29.7182 35.2311 33.4097 32.0641 37.2905 33.0635C39.0417 33.5144 40.2579 31.3537 38.9638 30.0906C36.0959 27.2915 36.888 22.4926 40.5033 20.7636C42.1346 19.9834 41.6773 17.5465 39.8741 17.4107C35.878 17.1099 33.4001 12.9246 35.0582 9.27627C35.8064 7.63 33.8896 6.0571 32.421 7.11221C29.1665 9.45047 24.578 7.83708 23.5031 3.9765C23.018 2.23445 20.5387 2.2616 20.0919 4.01385ZM25.4298 3.44002C24.3952 -0.275669 19.1069 -0.217758 18.1539 3.5197C17.5072 6.05581 14.5343 7.17488 12.3758 5.69468C9.19488 3.51332 5.18102 6.95695 6.85338 10.4326C7.98819 12.791 6.43013 15.5592 3.82519 15.8128C-0.0137096 16.1864 -0.874987 21.4045 2.64021 22.992C5.0255 24.0692 5.61132 27.1913 3.7788 29.0599C1.32921 31.5578 3.31829 35.5342 6.48031 35.4731L0.789813 44.2207C-0.12236 45.6229 0.987481 47.4587 2.65298 47.3026L6.92448 46.9021C7.40722 46.8568 7.85287 47.1644 7.98181 47.6318L8.90667 50.9844C9.37688 52.689 11.6654 52.9896 12.5599 51.4643L17.5214 43.0035C18.1259 42.7399 18.6821 42.2971 19.1227 41.6513C20.5978 39.4893 23.7742 39.4545 25.2962 41.5837C26.435 43.1767 28.2715 43.4807 29.7535 42.8917L38.1396 50.6738C39.4195 51.8615 41.5 50.9538 41.5 49.2078V45.1885C41.5 44.6484 41.929 44.2058 42.4688 44.189L46.3373 44.0681C48.052 44.0145 48.9079 41.9687 47.7422 40.7101L40.9245 33.3486C41.7836 31.9658 41.7912 30.0555 40.3607 28.6593C38.4877 26.8312 39.005 23.6971 41.3662 22.5679C44.8457 20.9038 43.8704 15.7059 40.0242 15.4164C37.4144 15.2199 35.7961 12.4865 36.879 10.1038C38.4748 6.59236 34.3865 3.23746 31.2541 5.48795C29.1285 7.01506 26.1318 5.96136 25.4298 3.44002ZM12.2584 39.2376C12.098 41.303 13.463 42.7651 15.0979 43.1826L10.8347 50.4526L9.90979 47.1C9.52298 45.6978 8.18601 44.7751 6.73779 44.9108L2.4663 45.3113L9.03429 35.2148C10.9162 35.4819 12.4186 37.1739 12.2584 39.2376ZM39.5 49.2078L31.381 41.6734C31.914 40.9799 32.2112 40.0746 32.1061 39.0203C31.8463 36.416 34.2572 34.3476 36.7918 35.0003C37.7923 35.2579 38.7109 35.1159 39.4667 34.718L46.2749 42.0691L42.4063 42.1899C40.7868 42.2406 39.5 43.5681 39.5 45.1885V49.2078ZM25.0001 22.0001C25.0001 23.6569 23.6569 25.0001 22.0001 25.0001C20.3432 25.0001 19.0001 23.6569 19.0001 22.0001C19.0001 20.3432 20.3432 19.0001 22.0001 19.0001C23.6569 19.0001 25.0001 20.3432 25.0001 22.0001ZM27.0001 22.0001C27.0001 24.7615 24.7615 27.0001 22.0001 27.0001C19.2387 27.0001 17.0001 24.7615 17.0001 22.0001C17.0001 19.2386 19.2387 17.0001 22.0001 17.0001C24.7615 17.0001 27.0001 19.2386 27.0001 22.0001Z" fill="#C3D62F"/>
</svg>
