<svg width="104" height="104" viewBox="0 0 104 104" fill="none" xmlns="http://www.w3.org/2000/svg">
<g filter="url(#filter0_d_100_16)">
<rect x="10" width="84" height="84" rx="42" fill="#242834"/>
</g>
<path d="M51.6419 31L31.628 61.766C31.1719 62.4671 31.7268 63.385 32.5596 63.3069L36.8311 62.9065C37.7966 62.8159 38.6879 63.4311 38.9458 64.3659L39.8706 67.7185C40.1057 68.5707 41.25 68.721 41.6972 67.9584L51.6419 51L68.8198 66.9408C69.4597 67.5346 70.5 67.0808 70.5 66.2078V62.1885C70.5 61.1082 71.3578 60.2232 72.4375 60.1895L76.3061 60.0686C77.1634 60.0418 77.5913 59.0189 77.0085 58.3896L51.6419 31Z" stroke="#C3D62F" stroke-width="2"/>
<path d="M41.8102 23.5193C44.542 25.3926 48.3044 23.9763 49.1228 20.7667C49.8227 18.0218 53.7065 17.9793 54.4664 20.7082C55.3549 23.8991 59.1474 25.2327 61.8375 23.3C64.138 21.6472 67.1405 24.1111 65.9685 26.6899C64.598 29.7055 66.6461 33.1648 69.9491 33.4135C72.7738 33.6261 73.4901 37.4435 70.9346 38.6657C67.9464 40.0948 67.2917 44.0613 69.6622 46.3749C71.6894 48.3534 69.7843 51.7382 67.0411 51.0318C63.8334 50.2058 60.7822 52.8235 61.1109 56.1195C61.3921 58.9381 57.757 60.3065 56.1097 58.002C54.1834 55.3074 50.1634 55.3514 48.2966 58.0876C46.7001 60.4275 43.036 59.1392 43.2553 56.315C43.5118 53.0126 40.404 50.4623 37.2152 51.3584C34.4881 52.1247 32.5094 48.7825 34.4927 46.76C36.8119 44.3951 36.0705 40.4438 33.0517 39.0805C30.4701 37.9146 31.1026 34.0824 33.922 33.808C37.2188 33.4871 39.1906 29.9837 37.7544 26.9989C36.5262 24.4463 39.4741 21.9173 41.8102 23.5193Z" fill="#242834" stroke="#C3D62F" stroke-width="2"/>
<circle cx="52" cy="39" r="4" stroke="#C3D62F" stroke-width="2"/>
<defs>
<filter id="filter0_d_100_16" x="0" y="0" width="104" height="104" filterUnits="userSpaceOnUse" color-interpolation-filters="sRGB">
<feFlood flood-opacity="0" result="BackgroundImageFix"/>
<feColorMatrix in="SourceAlpha" type="matrix" values="0 0 0 0 0 0 0 0 0 0 0 0 0 0 0 0 0 0 127 0" result="hardAlpha"/>
<feOffset dy="10"/>
<feGaussianBlur stdDeviation="5"/>
<feComposite in2="hardAlpha" operator="out"/>
<feColorMatrix type="matrix" values="0 0 0 0 0.0432118 0 0 0 0 0.0504028 0 0 0 0 0.0791667 0 0 0 0.52 0"/>
<feBlend mode="normal" in2="BackgroundImageFix" result="effect1_dropShadow_100_16"/>
<feBlend mode="normal" in="SourceGraphic" in2="effect1_dropShadow_100_16" result="shape"/>
</filter>
</defs>
</svg>
