<svg width="28" height="33" viewBox="0 0 28 33" fill="none" xmlns="http://www.w3.org/2000/svg">
<g filter="url(#filter0_bd_119_825)">
<path d="M23 9.58333C23 10.6412 22.4823 12.0796 21.5626 13.7407C20.6609 15.3694 19.4462 17.0846 18.2127 18.6599C16.9821 20.2314 15.7491 21.643 14.8224 22.663C14.5085 23.0084 14.2304 23.3083 14 23.5536C13.7696 23.3083 13.4915 23.0084 13.1776 22.663C12.2509 21.643 11.0179 20.2314 9.78733 18.6599C8.55378 17.0846 7.33907 15.3694 6.43738 13.7407C5.51774 12.0796 5 10.6412 5 9.58333C5 4.88257 8.9889 1 14 1C19.0111 1 23 4.88257 23 9.58333Z" stroke="#2C3447" stroke-width="2" shape-rendering="crispEdges"/>
</g>
<path d="M16 28H8" stroke="#2C3447" stroke-width="2" stroke-linecap="round"/>
<path opacity="0.88" d="M21.3753 31.125H13.3877" stroke="#2C3447" stroke-width="2" stroke-linecap="round"/>
<circle cx="14" cy="10" r="2" fill="white"/>
<defs>
<filter id="filter0_bd_119_825" x="0" y="-4" width="28" height="37" filterUnits="userSpaceOnUse" color-interpolation-filters="sRGB">
<feFlood flood-opacity="0" result="BackgroundImageFix"/>
<feGaussianBlur in="BackgroundImageFix" stdDeviation="2"/>
<feComposite in2="SourceAlpha" operator="in" result="effect1_backgroundBlur_119_825"/>
<feColorMatrix in="SourceAlpha" type="matrix" values="0 0 0 0 0 0 0 0 0 0 0 0 0 0 0 0 0 0 127 0" result="hardAlpha"/>
<feOffset dy="4"/>
<feGaussianBlur stdDeviation="2"/>
<feComposite in2="hardAlpha" operator="out"/>
<feColorMatrix type="matrix" values="0 0 0 0 0.176471 0 0 0 0 0.207843 0 0 0 0 0.282353 0 0 0 0.24 0"/>
<feBlend mode="normal" in2="effect1_backgroundBlur_119_825" result="effect2_dropShadow_119_825"/>
<feBlend mode="normal" in="SourceGraphic" in2="effect2_dropShadow_119_825" result="shape"/>
</filter>
</defs>
</svg>
