<svg width="104" height="104" viewBox="0 0 104 104" fill="none" xmlns="http://www.w3.org/2000/svg">
<g filter="url(#filter0_d_477_1288)">
<path d="M10 42C10 18.804 28.804 0 52 0V0C75.196 0 94 18.804 94 42V42C94 65.196 75.196 84 52 84V84C28.804 84 10 65.196 10 42V42Z" fill="#242834"/>
</g>
<path d="M75 58V54C75 50.2723 72.4505 47.1401 69 46.2521M62 22.5815C64.9319 23.7683 67 26.6426 67 30C67 33.3574 64.9319 36.2317 62 37.4185M67 60C67 56.2725 67 54.4087 66.3911 52.9386C65.5791 50.9783 64.0217 49.4209 62.0615 48.609C60.5913 48 58.7276 48 55 48H49C45.2725 48 43.4087 48 41.9386 48.609C39.9783 49.4209 38.4209 50.9783 37.609 52.9386C37 54.4087 37 56.2725 37 60M60 32C60 36.4183 56.4183 40 52 40C47.5818 40 44 36.4183 44 32C44 27.5817 47.5818 24 52 24C56.4183 24 60 27.5817 60 32Z" stroke="#C3D62F" stroke-width="2" stroke-linecap="round" stroke-linejoin="round"/>
<path d="M47 48L52.2174 53L57 48" stroke="#C3D62F" stroke-width="2"/>
<path d="M42.5 22.5C36.5 25 36 35 42.5 37.5" stroke="#C3D62F" stroke-width="2" stroke-linecap="round"/>
<path d="M36 46.5C29.5 46.5 29.5 52.5 29.5 58.5" stroke="#C3D62F" stroke-width="2" stroke-linecap="round"/>
<path d="M52 52V62" stroke="#C3D62F" stroke-width="2"/>
<defs>
<filter id="filter0_d_477_1288" x="0" y="0" width="104" height="104" filterUnits="userSpaceOnUse" color-interpolation-filters="sRGB">
<feFlood flood-opacity="0" result="BackgroundImageFix"/>
<feColorMatrix in="SourceAlpha" type="matrix" values="0 0 0 0 0 0 0 0 0 0 0 0 0 0 0 0 0 0 127 0" result="hardAlpha"/>
<feOffset dy="10"/>
<feGaussianBlur stdDeviation="5"/>
<feComposite in2="hardAlpha" operator="out"/>
<feColorMatrix type="matrix" values="0 0 0 0 0.0432118 0 0 0 0 0.0504028 0 0 0 0 0.0791667 0 0 0 0.52 0"/>
<feBlend mode="normal" in2="BackgroundImageFix" result="effect1_dropShadow_477_1288"/>
<feBlend mode="normal" in="SourceGraphic" in2="effect1_dropShadow_477_1288" result="shape"/>
</filter>
</defs>
</svg>
